<svg width="20" height="24" viewBox="0 0 20 24" xmlns="http://www.w3.org/2000/svg">
<path id="book-icon" d="M2.80002 24C2.14002 24 1.57502 23.765 1.10502 23.295C0.635024 22.825 0.400024 22.26 0.400024 21.6V2.4C0.400024 1.74 0.635024 1.175 1.10502 0.705C1.57502 0.235 2.14002 0 2.80002 0H17.2C17.86 0 18.425 0.235 18.895 0.705C19.365 1.175 19.6 1.74 19.6 2.4V21.6C19.6 22.26 19.365 22.825 18.895 23.295C18.425 23.765 17.86 24 17.2 24H2.80002ZM2.80002 21.6H17.2V2.4H14.8V10.8L11.8 9L8.80002 10.8V2.4H2.80002V21.6Z"/>
</svg>
