<svg width="25" height="24" viewBox="0 0 25 24" xmlns="http://www.w3.org/2000/svg">
<path id="search-icon" d="M22.7333 24L14.3333 15.6C13.6667 16.1333 12.9 16.5556 12.0333 16.8667C11.1667 17.1778 10.2445 17.3333 9.26667 17.3333C6.84445 17.3333 4.79445 16.4944 3.11667 14.8167C1.4389 13.1389 0.600006 11.0889 0.600006 8.66667C0.600006 6.24444 1.4389 4.19444 3.11667 2.51667C4.79445 0.838889 6.84445 0 9.26667 0C11.6889 0 13.7389 0.838889 15.4167 2.51667C17.0945 4.19444 17.9333 6.24444 17.9333 8.66667C17.9333 9.64445 17.7778 10.5667 17.4667 11.4333C17.1556 12.3 16.7333 13.0667 16.2 13.7333L24.6 22.1333L22.7333 24ZM9.26667 14.6667C10.9333 14.6667 12.35 14.0833 13.5167 12.9167C14.6833 11.75 15.2667 10.3333 15.2667 8.66667C15.2667 7 14.6833 5.58333 13.5167 4.41667C12.35 3.25 10.9333 2.66667 9.26667 2.66667C7.60001 2.66667 6.18334 3.25 5.01667 4.41667C3.85001 5.58333 3.26667 7 3.26667 8.66667C3.26667 10.3333 3.85001 11.75 5.01667 12.9167C6.18334 14.0833 7.60001 14.6667 9.26667 14.6667Z"/>
</svg>
